<?xml version="1.0" ?><!DOCTYPE svg  PUBLIC '-//W3C//DTD SVG 1.1//EN'  'http://www.w3.org/Graphics/SVG/1.1/DTD/svg11.dtd'><svg enable-background="new 0 0 24 24" height="24px" id="Layer_1" version="1.1" viewBox="0 0 24 24" width="24px" xml:space="preserve" xmlns="http://www.w3.org/2000/svg" xmlns:xlink="http://www.w3.org/1999/xlink"><path d="M17.5,10.4c0,0-0.6-0.6-1.1-0.3S16,11,16,11v3h-5.9c-2.2,0-4-1.8-4-4s1.8-4,4-4h3C13.7,6,14,5.6,14,5V1c0-0.6-0.3-1-0.9-1  h-3c-5.5,0-10,4.5-10,10s4.5,10,10,10H16v3c0,0-0.1,0.8,0.5,1s1.1-0.5,1.1-0.5l6.5-6.5L17.5,10.4z M12.1,18h-2c-4.4,0-8-3.6-8-8  s3.6-8,8-8H12v2h-1.9c-3.3,0-6,2.7-6,6s2.7,6,6,6h2H18v-2l3,3.1L18,20v-2H12.1z"/></svg>